<svg width="19" height="19" viewBox="0 0 19 19" fill="none" xmlns="http://www.w3.org/2000/svg">
<path d="M17.4715 14.3721L18.2149 13.6128L13.0216 8.54907L12.5117 9.72108L16.4851 13.5954L15.3012 14.8047L15.3007 18.5586H17.4717L17.4715 14.3721Z" fill="#BDBDBD"/>
<path d="M11.1496 9.87964L10.6974 9.92315L10.0312 10.3146L13.3958 13.5952L11.3759 15.658V18.5584H14.234L14.2346 14.3719L14.978 13.6127L11.1496 9.87964Z" fill="#BDBDBD"/>
<path d="M5.37891 15.1611H6.58448V18.5582H5.37891V15.1611Z" fill="#BDBDBD"/>
<path d="M11.1483 14.3716L11.8919 13.6123L8.90119 10.6963L7.58488 9.92281L5.78621 9.74987L5.26356 8.54858L0.0703125 13.6123L0.813728 14.3716L1.6496 13.5566V18.5581H4.31446V14.0993H7.64772V18.5581H10.3126V13.5566L11.1483 14.3716Z" fill="#BDBDBD"/>
<path d="M5.94834 7.4568L6.51224 8.75312L7.92142 8.88849L9.14125 9.60523L10.3611 8.88849L11.7703 8.75312L12.3342 7.45694L13.3958 6.52168L13.0874 5.14221L13.3958 3.76274L12.3342 2.82762L11.7703 1.53144L10.3611 1.39594L9.14125 0.679199L7.92142 1.39594L6.51224 1.53144L5.94834 2.82762L4.88672 3.76274L5.1951 5.14221L4.88672 6.52168L5.94834 7.4568ZM7.73747 4.54523C7.73747 4.02546 8.11547 3.58842 8.87148 3.48262V2.98108H9.52147V3.47337C9.86266 3.50555 10.1946 3.59298 10.4573 3.74023L10.1301 4.52686C9.812 4.3658 9.51234 4.28762 9.23108 4.28762C8.91301 4.28762 8.81169 4.37961 8.81169 4.49012C8.81169 4.87646 10.5957 4.55448 10.5957 5.74141C10.5957 6.23811 10.2361 6.67058 9.52161 6.79476V7.30334H8.87162V6.81783C8.41057 6.7902 7.9635 6.66603 7.68681 6.49572L8.03713 5.70453C8.3415 5.88395 8.74705 5.99901 9.10208 5.99901C9.41088 5.99901 9.52161 5.93451 9.52161 5.82414C9.52161 5.41929 7.73747 5.74596 7.73747 4.54523Z" fill="#BDBDBD"/>
</svg>
