<svg width="17" height="15" viewBox="0 0 17 15" fill="none" xmlns="http://www.w3.org/2000/svg">
<path d="M0.398438 14.678H11.7845V11.6606H16.4381V0.284668H0.398438V14.678ZM9.69299 5.23029C9.55015 5.23029 9.44426 5.29466 9.38433 5.40502L8.85006 5.15211C8.98363 4.89009 9.28301 4.69712 9.75749 4.69712C10.2642 4.69712 10.6051 4.93153 10.6051 5.30391C10.6051 5.48776 10.5361 5.64868 10.2365 5.91071L9.98324 6.12674H10.6649V6.65079H8.97892V6.2324L9.7114 5.60724C9.84967 5.49232 9.87736 5.4187 9.87736 5.35903C9.87722 5.28554 9.82199 5.23029 9.69299 5.23029ZM8.55538 8.15402H7.56489L7.55576 6.68753L6.85553 7.86437H6.37648L5.67625 6.73808V8.15402H4.68577V4.93608H5.5795L6.62978 6.65079L7.65251 4.93608H8.5461L8.55538 8.15402Z" fill="#BDBDBD"/>
</svg>
