<svg width="19" height="15" viewBox="0 0 19 15" fill="none" xmlns="http://www.w3.org/2000/svg">
<path d="M11.6767 5.9119L13.2382 3.69453C11.9641 1.81964 9.81147 0.585449 7.37564 0.585449C3.47244 0.585449 0.296875 3.75445 0.296875 7.64955C0.296875 11.5446 3.47244 14.7136 7.3756 14.7136C9.78657 14.7136 11.9197 13.5046 13.1984 11.6624L13.5025 6.74933H12.1127C11.6811 6.74933 11.4291 6.26331 11.6767 5.9119ZM8.15297 10.9671C8.15297 10.9671 8.16108 10.9668 7.90851 10.9668V11.7865C7.90851 12.0801 7.67011 12.3183 7.37557 12.3183C7.08138 12.3183 6.84265 12.08 6.84265 11.7865V10.9668H6.51151C5.8521 10.9621 5.22609 10.6622 4.79335 10.1439C4.60503 9.91836 4.63559 9.58293 4.86194 9.39504C5.079 9.21456 5.3977 9.2355 5.58922 9.43721C5.59704 9.44537 5.60487 9.45421 5.61231 9.46309C5.84324 9.73998 6.17332 9.90026 6.51795 9.9031H8.14233C8.14589 9.90345 8.14945 9.90345 8.153 9.90345C8.62936 9.90345 9.01564 9.51847 9.01564 9.04224C9.01564 8.56752 8.62836 8.18139 8.15265 8.18139C7.80286 8.18139 6.97086 8.18139 6.59863 8.18139C5.53525 8.18139 4.67013 7.31806 4.67013 6.25688C4.67013 5.18808 5.53878 4.32648 6.61072 4.33237H6.84272V3.51267C6.84272 3.21909 7.08149 2.98082 7.37564 2.98082C7.67018 2.98082 7.90859 3.21909 7.90859 3.51267V4.33237H8.10434C8.86677 4.3377 9.57167 4.73018 9.98951 5.38222L9.99769 5.39497C10.1561 5.64247 10.0833 5.97112 9.83534 6.12926C9.59657 6.28127 9.26315 6.22767 9.09137 5.95482C8.87253 5.61375 8.49201 5.39923 8.09801 5.39603H6.60901C6.60546 5.39603 6.6019 5.39568 6.5987 5.39568C6.12188 5.39568 5.73606 5.78066 5.73606 6.25688C5.73606 6.73161 6.12295 7.11774 6.5987 7.11774H8.15272C9.21609 7.11774 10.0816 7.98107 10.0816 9.04224C10.0815 10.1024 9.22196 10.9671 8.15297 10.9671Z" fill="#BDBDBD"/>
<path d="M17.5096 5.68583C17.2038 5.68583 16.9591 5.94373 16.9778 6.25066L17.4082 13.2054C17.4272 13.5114 17.1836 13.77 16.8763 13.77H14.705C14.3976 13.77 14.1539 13.5112 14.1729 13.205C14.3686 10.039 14.1073 14.2691 14.6034 6.25062C14.622 5.94348 14.3776 5.6858 14.0715 5.6858H13.1406C13.3449 5.39573 15.1206 2.87417 15.6453 2.12908C15.7162 2.02847 15.8654 2.02865 15.9362 2.12925L18.4408 5.68583H17.5096Z" fill="#BDBDBD"/>
</svg>
