<svg width="19" height="17" viewBox="0 0 19 17" fill="none" xmlns="http://www.w3.org/2000/svg">
<path d="M15.5322 2.51109C13.822 0.998324 11.5523 0.165283 9.14131 0.165283C6.73031 0.165283 4.46062 0.998324 2.75039 2.51109C1.02218 4.03987 0.0703125 6.07765 0.0703125 8.24914C0.0703125 10.4206 1.02218 12.4584 2.75039 13.9872C4.46062 15.4999 6.73031 16.333 9.14131 16.333C10.1586 16.333 11.1559 16.1844 12.1079 15.891L15.6383 16.6149L16.0697 13.468C17.4528 12.0107 18.2123 10.1643 18.2123 8.24914C18.2123 6.07765 17.2605 4.03987 15.5322 2.51109ZM4.81302 12.7399V7.74207L3.9777 8.55647L3.23484 7.79774L9.14131 2.03855L15.0478 7.79774L14.3048 8.55647L13.4696 7.74207V12.7399H4.81302Z" fill="#BDBDBD"/>
<path d="M8.53906 9.34521H9.74381V11.679H8.53906V9.34521Z" fill="#BDBDBD"/>
<path d="M12.4056 11.6782V6.7047L9.14029 3.52075L5.875 6.7047V11.6782H7.47491V8.28363H10.8057V11.6782H12.4056Z" fill="#BDBDBD"/>
</svg>
