<svg width="11" height="18" viewBox="0 0 11 18" fill="none" xmlns="http://www.w3.org/2000/svg">
<path d="M9.75537 0.0037452L7.32394 0C4.59231 0 2.82701 1.73871 2.82701 4.42982V6.47227H0.382319C0.171068 6.47227 0 6.63668 0 6.83949V9.79876C0 10.0016 0.171263 10.1658 0.382319 10.1658H2.82701V17.633C2.82701 17.8358 2.99808 18 3.20933 18H6.39896C6.61021 18 6.78128 17.8356 6.78128 17.633V10.1658H9.6397C9.85095 10.1658 10.022 10.0016 10.022 9.79876L10.0232 6.83949C10.0232 6.74211 9.98281 6.64886 9.91122 6.57994C9.83963 6.51103 9.7421 6.47227 9.64067 6.47227H6.78128V4.74086C6.78128 3.90868 6.98785 3.48622 8.11705 3.48622L9.75498 3.48566C9.96603 3.48566 10.1371 3.32124 10.1371 3.11863V0.370775C10.1371 0.168347 9.96623 0.00411972 9.75537 0.0037452Z" fill="white"/>
</svg>
