<svg width="9" height="14" viewBox="0 0 9 14" fill="none" xmlns="http://www.w3.org/2000/svg">
<path d="M5.56395 7.00112L0.459132 12.0956C0.31857 12.2356 0.241245 12.4227 0.241245 12.6222C0.241245 12.8218 0.318571 13.0088 0.459132 13.1489L0.906444 13.5951C1.04678 13.7355 1.23439 13.8127 1.4343 13.8127C1.63421 13.8127 1.82159 13.7355 1.96204 13.5951L8.04014 7.52966C8.18115 7.38905 8.25836 7.20118 8.25781 7.00145C8.25836 6.80085 8.18126 6.61319 8.04014 6.47248L1.9677 0.412917C1.82725 0.272535 1.63987 0.195258 1.43985 0.195258C1.23993 0.195258 1.05255 0.272535 0.91199 0.412917L0.464789 0.859083C0.173793 1.14948 0.173793 1.62222 0.464789 1.9125L5.56395 7.00112Z" fill="#2D57B3"/>
</svg>
