<svg width="9" height="15" viewBox="0 0 9 15" fill="none" xmlns="http://www.w3.org/2000/svg">
<path d="M2.74464 7.62388L7.84946 2.52939C7.99002 2.38945 8.06735 2.20235 8.06735 2.00284C8.06735 1.80323 7.99002 1.61624 7.84946 1.47608L7.40215 1.02991C7.26181 0.889532 7.07421 0.812256 6.87429 0.812256C6.67438 0.812256 6.487 0.889532 6.34655 1.02991L0.26845 7.09534C0.127444 7.23595 0.0502295 7.42382 0.0507842 7.62355C0.0502295 7.82415 0.127333 8.01181 0.26845 8.15252L6.34089 14.2121C6.48134 14.3525 6.66872 14.4297 6.86875 14.4297C7.06866 14.4297 7.25604 14.3525 7.3966 14.2121L7.8438 13.7659C8.1348 13.4755 8.1348 13.0028 7.8438 12.7125L2.74464 7.62388Z" fill="#2D57B3"/>
</svg>
