<svg width="15" height="9" viewBox="0 0 15 9" fill="none" xmlns="http://www.w3.org/2000/svg">
<path d="M7.3395 8.52258H8.23581C8.23581 8.52258 8.50677 8.49258 8.64459 8.34351C8.7721 8.20662 8.76742 7.94973 8.76742 7.94973C8.76742 7.94973 8.7496 6.74683 9.30839 6.56963C9.85875 6.39524 10.5657 7.73221 11.3148 8.24694C11.8811 8.63603 12.3114 8.55071 12.3114 8.55071L14.315 8.52258C14.315 8.52258 15.3632 8.45789 14.8663 7.63377C14.826 7.56626 14.5766 7.02435 13.3765 5.91051C12.1202 4.74418 12.2889 4.93357 13.8022 2.91686C14.7238 1.68864 15.0923 0.938586 14.9769 0.617937C14.8672 0.31229 14.1894 0.392921 14.1894 0.392921L11.9355 0.406047C11.9355 0.406047 11.7686 0.383545 11.6439 0.457613C11.5229 0.530743 11.4451 0.699506 11.4451 0.699506C11.4451 0.699506 11.0879 1.6502 10.6116 2.45839C9.60748 4.16382 9.20526 4.25383 9.04119 4.14788C8.6596 3.9013 8.75523 3.15594 8.75523 2.62715C8.75523 0.974214 9.00556 0.2851 8.26675 0.106962C8.02111 0.0478954 7.8411 0.00851754 7.21386 0.00195456C6.40943 -0.00648356 5.72782 0.00476726 5.34248 0.193219C5.08558 0.318853 4.88776 0.599186 5.0087 0.615125C5.15778 0.634814 5.4953 0.706069 5.67438 0.949837C5.90596 1.26392 5.89752 1.97085 5.89752 1.97085C5.89752 1.97085 6.03065 3.91631 5.58718 4.1582C5.28247 4.32415 4.86525 3.98569 3.96988 2.43776C3.5114 1.64551 3.1645 0.768886 3.1645 0.768886C3.1645 0.768886 3.09794 0.605749 2.97887 0.518555C2.83448 0.41261 2.63197 0.378857 2.63197 0.378857L0.488683 0.391983C0.488683 0.391983 0.167097 0.401359 0.0489629 0.541057C-0.0560448 0.665754 0.0405248 0.922647 0.0405248 0.922647C0.0405248 0.922647 1.71877 4.84825 3.61829 6.82746C5.36123 8.64165 7.3395 8.52258 7.3395 8.52258Z" fill="white"/>
</svg>
