<svg width="15" height="11" viewBox="0 0 15 11" fill="none" xmlns="http://www.w3.org/2000/svg">
<path d="M14.3625 0.99375C13.9556 0.27 13.5141 0.136875 12.615 0.08625C11.7169 0.0253125 9.45844 0 7.50187 0C5.54156 0 3.28219 0.0253126 2.385 0.0853126C1.48781 0.136875 1.04531 0.269062 0.634687 0.99375C0.215625 1.71656 0 2.96156 0 5.15344C0 5.15531 0 5.15625 0 5.15625C0 5.15812 0 5.15906 0 5.15906V5.16094C0 7.34344 0.215625 8.59781 0.634687 9.31312C1.04531 10.0369 1.48687 10.1681 2.38406 10.2291C3.28219 10.2816 5.54156 10.3125 7.50187 10.3125C9.45844 10.3125 11.7169 10.2816 12.6159 10.23C13.515 10.1691 13.9566 10.0378 14.3634 9.31406C14.7863 8.59875 15 7.34437 15 5.16187C15 5.16187 15 5.15906 15 5.15719C15 5.15719 15 5.15531 15 5.15438C15 2.96156 14.7863 1.71656 14.3625 0.99375Z" fill="white"/>
<path d="M5.625 7.96875V2.34375L10.3125 5.15625L5.625 7.96875Z" fill="black"/>
</svg>
