<?xml version="1.0" encoding="utf-8"?><svg xmlns="http://www.w3.org/2000/svg" xmlns:xlink="http://www.w3.org/1999/xlink"><symbol viewBox="0 0 12 7" id="arrow-down" xmlns="http://www.w3.org/2000/svg"><path d="M5.96 4.648L1.502.19a.646.646 0 00-.46-.19.647.647 0 00-.461.19L.19.58a.647.647 0 00-.19.463c0 .174.068.338.19.46L5.498 6.81c.123.123.287.19.462.19a.65.65 0 00.463-.19l5.302-5.302a.646.646 0 00.19-.461.647.647 0 00-.19-.461l-.39-.39a.653.653 0 00-.922 0L5.96 4.647z"/></symbol><symbol viewBox="0 0 11 18" id="fb" xmlns="http://www.w3.org/2000/svg"><path d="M9.755.004L7.324 0C4.592 0 2.827 1.739 2.827 4.43v2.042H.382A.375.375 0 000 6.84V9.8c0 .203.171.367.382.367h2.445v7.467c0 .203.171.367.382.367H6.4a.375.375 0 00.382-.367v-7.467H9.64a.375.375 0 00.382-.367l.001-2.96a.36.36 0 00-.112-.26.39.39 0 00-.27-.107H6.78V4.741c0-.832.207-1.255 1.336-1.255h1.638a.375.375 0 00.382-.367V.37a.375.375 0 00-.382-.367z"/></symbol><symbol viewBox="0 0 15 15" id="instagram" xmlns="http://www.w3.org/2000/svg"><path d="M10.94 0H4.06A4.065 4.065 0 000 4.06v6.88A4.065 4.065 0 004.06 15h6.88A4.065 4.065 0 0015 10.94V4.06A4.065 4.065 0 0010.94 0zM7.5 11.601A4.106 4.106 0 013.399 7.5 4.106 4.106 0 017.5 3.399 4.106 4.106 0 0111.601 7.5 4.106 4.106 0 017.5 11.601zm4.2-7.235a1.213 1.213 0 010-2.424c.668 0 1.212.544 1.212 1.212 0 .668-.544 1.212-1.213 1.212z"/><path d="M7.5 4.278A3.226 3.226 0 004.276 7.5 3.226 3.226 0 007.5 10.722 3.226 3.226 0 0010.722 7.5a3.226 3.226 0 00-3.223-3.222zm4.2-1.457a.333.333 0 100 .666.333.333 0 000-.666z"/></symbol><symbol viewBox="0 0 16 13" id="mail" xmlns="http://www.w3.org/2000/svg"><path d="M1.142 1.788C3.2 3.53 6.812 6.598 7.875 7.555c.142.13.295.195.454.195a.672.672 0 00.453-.194c1.063-.957 4.675-4.025 6.734-5.768a.312.312 0 00.043-.431 1.24 1.24 0 00-.98-.482h-12.5a1.24 1.24 0 00-.981.482.312.312 0 00.044.43z"/><path d="M15.647 2.733a.311.311 0 00-.333.045C13.03 4.713 10.117 7.194 9.2 8.02a1.265 1.265 0 01-1.744 0c-.978-.88-4.25-3.663-6.113-5.242a.313.313 0 00-.515.238v7.859c0 .69.56 1.25 1.25 1.25h12.5c.69 0 1.25-.56 1.25-1.25V3.016a.312.312 0 00-.181-.283z"/></symbol><symbol viewBox="0 0 9 14" id="next" xmlns="http://www.w3.org/2000/svg"><path d="M5.564 7.001L.459 12.096a.738.738 0 00-.218.526c0 .2.078.387.218.527l.447.446c.14.14.328.218.528.218s.388-.078.528-.218L8.04 7.53A.738.738 0 008.258 7c0-.2-.077-.388-.218-.529L1.968.412A.741.741 0 001.44.196c-.2 0-.387.078-.528.218L.465.859a.745.745 0 000 1.054L5.564 7z"/></symbol><symbol viewBox="0 0 16 15" id="phone" xmlns="http://www.w3.org/2000/svg"><path d="M15.536 11.927l-1.662-1.108-1.479-.986a.655.655 0 00-.879.143l-.915 1.176a.652.652 0 01-.832.173c-.62-.346-1.354-.67-2.974-2.292C5.176 7.41 4.85 6.679 4.504 6.059a.651.651 0 01.172-.832l1.176-.915a.655.655 0 00.143-.88L5.04 2 3.9.292a.655.655 0 00-.88-.199L1.705.881c-.355.21-.616.547-.73.944-.358 1.31-.43 4.198 4.2 8.828 4.63 4.63 7.518 4.558 8.828 4.198.396-.113.734-.373.943-.729l.788-1.313a.655.655 0 00-.199-.882zM9.36 2.328a4.401 4.401 0 014.397 4.396.259.259 0 10.517 0A4.92 4.92 0 009.36 1.81a.259.259 0 000 .518z"/><path d="M9.36 3.88a2.848 2.848 0 012.845 2.844.259.259 0 00.517 0A3.366 3.366 0 009.36 3.362a.259.259 0 000 .517z"/><path d="M9.36 5.43c.714.002 1.292.58 1.293 1.294a.259.259 0 10.518 0c-.002-1-.811-1.81-1.81-1.81a.259.259 0 000 .517z"/></symbol><symbol viewBox="0 0 9 15" id="prev" xmlns="http://www.w3.org/2000/svg"><path d="M2.745 7.624l5.104-5.095a.738.738 0 00.218-.526c0-.2-.077-.387-.218-.527l-.447-.446a.741.741 0 00-.528-.218.74.74 0 00-.527.218L.268 7.095a.738.738 0 00-.217.529c0 .2.076.388.217.529l6.073 6.06c.14.14.328.217.528.217s.387-.078.528-.218l.447-.446a.745.745 0 000-1.053l-5.1-5.09z"/></symbol><symbol viewBox="0 0 15 9" id="vk" xmlns="http://www.w3.org/2000/svg"><path d="M7.34 8.523h.896s.27-.03.409-.18c.127-.136.122-.393.122-.393s-.017-1.203.541-1.38c.55-.175 1.258 1.162 2.007 1.677.566.389.996.304.996.304l2.004-.028s1.048-.065.551-.89c-.04-.067-.29-.609-1.49-1.722-1.256-1.167-1.087-.977.426-2.994.922-1.228 1.29-1.978 1.175-2.3-.11-.305-.788-.224-.788-.224l-2.254.013s-.166-.022-.291.052a.635.635 0 00-.199.242s-.357.95-.833 1.758c-1.005 1.706-1.407 1.796-1.57 1.69-.382-.247-.287-.992-.287-1.52 0-1.654.25-2.343-.488-2.521C8.02.047 7.84.009 7.214.002c-.805-.008-1.486.003-1.872.191C5.086.32 4.888.6 5.01.615c.149.02.486.091.665.335.232.314.224 1.02.224 1.02s.133 1.946-.31 2.188c-.306.166-.723-.172-1.618-1.72-.459-.792-.806-1.67-.806-1.67S3.099.607 2.98.519a.961.961 0 00-.347-.14L.489.393s-.322.01-.44.15c-.105.124-.008.38-.008.38s1.678 3.926 3.577 5.905C5.361 8.642 7.34 8.523 7.34 8.523z"/></symbol><symbol viewBox="0 0 15 11" id="youtube" xmlns="http://www.w3.org/2000/svg"><path d="M14.363.994c-.407-.724-.849-.857-1.748-.908C11.717.026 9.458 0 7.502 0c-1.96 0-4.22.025-5.117.085-.897.052-1.34.184-1.75.909C.215 1.717 0 2.962 0 5.154v.007c0 2.182.216 3.437.635 4.152.41.724.852.855 1.75.916.897.053 3.157.084 5.117.084 1.956 0 4.215-.031 5.114-.083.899-.06 1.34-.192 1.747-.916.423-.715.637-1.97.637-4.152v-.008c0-2.192-.214-3.437-.637-4.16z"/><path d="M5.625 7.969V2.344l4.688 2.812L5.625 7.97z"/></symbol></svg>